<?xml version="1.0" encoding="UTF-8"?>
<svg version="1.1" xmlns="http://www.w3.org/2000/svg" width="500" height="500">
<path d="M0 0 C165 0 330 0 500 0 C500 165 500 330 500 500 C335 500 170 500 0 500 C0 335 0 170 0 0 Z " fill="#4D5471" transform="translate(0,0)"/>
<path d="M0 0 C0.33 0 0.66 0 1 0 C1 17.16 1 34.32 1 52 C6.176875 51.95359375 11.35375 51.9071875 16.6875 51.859375 C19.97788478 51.83892361 23.2681906 51.819667 26.55859375 51.8046875 C31.77506903 51.78082659 36.991262 51.75267654 42.20751953 51.69824219 C46.41560957 51.65460613 50.62339663 51.6308256 54.83169556 51.62049103 C56.43279791 51.61313137 58.0338847 51.5987598 59.63485718 51.57707977 C69.59565897 51.4476242 76.69494092 51.65949712 84.75 58.25 C86.62750589 60.54472942 87.60168367 62.1328409 88.7890625 64.7578125 C90.85445078 68.97688632 93.47042906 72.17818831 96.625 75.625 C102.63331443 82.39133798 107.88061432 89.54744296 113 97 C111.515 97.495 111.515 97.495 110 98 C109.31513275 99.32407669 108.65129797 100.65909241 108 102 C106.66666667 103.33333333 105.33333333 104.66666667 104 106 C103.505 107.485 103.505 107.485 103 109 C101.58067753 109.94621498 100.15354364 110.88270292 98.69032288 111.75950623 C96.91913404 112.9306028 96.91913404 112.9306028 95.72459412 114.72694397 C93.05574606 118.30698493 91.00818135 119.81952601 86.55374146 120.61691284 C82.15140062 120.90287021 77.75470377 120.78768014 73.34765625 120.68359375 C71.72100461 120.67052384 70.09432525 120.66056625 68.46763611 120.65357971 C64.20407878 120.62696259 59.94221386 120.5582989 55.67932129 120.48065186 C51.32225435 120.40880304 46.96491157 120.37702231 42.60742188 120.34179688 C34.07084137 120.26691828 25.53563172 120.14758563 17 120 C17 121.32 17 122.64 17 124 C18.63705147 123.99214478 18.63705147 123.99214478 20.30717468 123.98413086 C30.59243846 123.93998446 40.87696989 123.9377848 51.16226482 123.97665405 C56.45018658 123.99528951 61.73725878 123.99914565 67.02514648 123.96923828 C72.12846092 123.94091836 77.23035592 123.95140456 82.33359718 123.98880005 C84.28043128 123.99624661 86.22737071 123.98970937 88.17410851 123.96896362 C90.90241861 123.94227818 93.62612345 123.96531496 96.35424805 124 C97.15913666 123.98058853 97.96402527 123.96117706 98.79330444 123.94117737 C101.1267221 124.00178746 102.83222085 124.12467955 105 125 C107.17476379 127.44404684 108.63562296 130.03760444 110 133 C106.66654324 136.40648656 104.51193408 138.31044208 99.66625977 138.54833984 C98.0077307 138.54220563 96.34916658 138.51180003 94.69140625 138.4609375 C92.87434963 138.45789779 91.05729222 138.45530744 89.24023438 138.453125 C86.39834626 138.41972858 83.55711735 138.37489476 80.71557617 138.31933594 C77.95686146 138.27442052 75.20043003 138.27208884 72.44140625 138.2734375 C71.59953262 138.24349701 70.757659 138.21355652 69.89027405 138.18270874 C64.98709206 138.2032382 62.52557818 138.93595312 58.97241211 142.42041016 C57.33465179 144.25674337 56.09990542 145.80018915 55 148 C55.61974197 147.99555878 56.23948395 147.99111755 56.87800598 147.98654175 C63.31781716 147.9423564 69.75758541 147.91215355 76.19750977 147.89013672 C78.60214995 147.88006799 81.00677786 147.86641215 83.41137695 147.84912109 C86.86412584 147.82491126 90.3167131 147.81352568 93.76953125 147.8046875 C94.84773636 147.79436493 95.92594147 147.78404236 97.03681946 147.77340698 C98.53803596 147.77318039 98.53803596 147.77318039 100.06958008 147.77294922 C100.95116287 147.768508 101.83274567 147.76406677 102.74104309 147.75949097 C105 148 105 148 108 150 C110.32387947 150.39387788 112.65793749 150.73486085 115 151 C109.2083907 158.653198 109.2083907 158.653198 104.64934158 159.36914349 C103.33855196 159.36499542 103.33855196 159.36499542 102.00128174 159.36076355 C100.99449875 159.36488754 99.98771576 159.36901154 98.95042419 159.3732605 C97.85206741 159.36247467 96.75371063 159.35168884 95.62207031 159.34057617 C94.46081131 159.34101425 93.29955231 159.34145233 92.10310364 159.34190369 C88.2612736 159.33981216 84.41987889 159.31646312 80.578125 159.29296875 C77.915825 159.28737409 75.25354917 159.28295583 72.59124756 159.28010559 C66.29788826 159.27078412 60.00468544 159.24616907 53.71139503 159.21605712 C46.5458017 159.1825162 39.38020088 159.1660279 32.21454859 159.15097082 C17.47628572 159.11961954 2.73814559 159.06685711 -12 159 C-12.28076848 151.53020395 -12.47229371 144.06178418 -12.60424805 136.58789062 C-12.65929452 134.05026414 -12.73416029 131.51298219 -12.82983398 128.9765625 C-13.68972599 105.58014261 -13.68972599 105.58014261 -8.06465149 98.91217041 C-5.85696557 96.73816848 -3.48356092 94.84757176 -1 93 C-0.505 92.01 -0.505 92.01 0 91 C0.66 91 1.32 91 2 91 C2 94.96 2 98.92 2 103 C3.60875 103.474375 5.2175 103.94875 6.875 104.4375 C11.75 105.875 11.75 105.875 14 107 C16.77580529 107.1226314 19.52814868 107.18572735 22.30517578 107.20532227 C23.16378204 107.21522186 24.02238831 107.22512146 24.90701294 107.23532104 C27.75308447 107.26698039 30.59917271 107.29171098 33.4453125 107.31640625 C35.41544028 107.33697195 37.3855636 107.35796832 39.35568237 107.37937927 C44.54734702 107.43463961 49.73905174 107.4840314 54.93078613 107.53222656 C60.22602923 107.58241269 65.52121395 107.63811381 70.81640625 107.69335938 C81.21088766 107.8009894 91.6054197 107.9024236 102 108 C101.39175796 106.73389008 100.77763668 105.47060373 100.16113281 104.20849609 C99.81979309 103.50469818 99.47845337 102.80090027 99.12677002 102.07577515 C97.40311714 98.90040151 95.1471736 96.30788324 92.75 93.625 C88 88.24789326 88 88.24789326 88 86 C86.515 86.495 86.515 86.495 85 87 C85 85.68 85 84.36 85 83 C84.39857178 82.89131592 83.79714355 82.78263184 83.17749023 82.6706543 C79.5682276 81.55902245 77.49382626 78.5655748 75.0625 75.8125 C74.55009766 75.24724609 74.03769531 74.68199219 73.50976562 74.09960938 C71.12131113 71.45015477 68.90871705 68.86880669 66.86541748 65.93214417 C64.66091342 63.30364474 64.12075299 63.02659392 60.55143738 62.24050903 C59.21727486 62.20566221 57.88201156 62.20318579 56.54760742 62.22705078 C55.8153595 62.21642105 55.08311157 62.20579132 54.32867432 62.19483948 C51.92023475 62.16684445 49.51399575 62.18083056 47.10546875 62.1953125 C45.43107697 62.18405951 43.75670097 62.17017761 42.08235168 62.15377808 C37.68454938 62.11774868 33.28744238 62.11736532 28.88952637 62.12445068 C24.39822969 62.12536375 19.90719336 62.09250283 15.41601562 62.0625 C6.61058136 62.00864594 -2.19440529 61.99245487 -11 62 C-11.17792768 55.00779391 -11.30025694 48.01617425 -11.38452148 41.0222168 C-11.41965856 38.64471624 -11.46737953 36.26736623 -11.52807617 33.89038086 C-11.61328709 30.466907 -11.65275737 27.04543693 -11.68359375 23.62109375 C-11.71972275 22.56353378 -11.75585175 21.50597382 -11.79307556 20.41636658 C-11.79692168 13.1382289 -11.79692168 13.1382289 -9.47854614 9.82693481 C-7.73127174 8.08262146 -5.91598355 6.55288183 -4 5 C-2.65807132 3.34024611 -1.32090525 1.67653359 0 0 Z " fill="#354E70" transform="translate(133,180)"/>
<path d="M0 0 C22.11 0 44.22 0 67 0 C67 0.99 67 1.98 67 3 C67.66 3 68.32 3 69 3 C69.495 3.99 69.495 3.99 70 5 C85.84 5.495 85.84 5.495 102 6 C102.66 4.35 103.32 2.7 104 1 C106.82001327 -0.41000664 108.87007255 -0.24548451 112 0 C116.63235294 2.26470588 116.63235294 2.26470588 118 5 C118.26938904 9.10818291 118.28827671 12.07751453 117.0625 16 C114.21797403 18.75832822 112.09702284 18.55990351 108.25390625 18.56640625 C106 18 106 18 104.38665771 15.99871826 C100.99296333 13.15665218 97.79061683 13.42746807 93.55957031 13.45410156 C92.71042557 13.44376389 91.86128082 13.43342621 90.98640442 13.42277527 C88.18345192 13.39330913 85.38122032 13.3918473 82.578125 13.390625 C80.63326639 13.37564592 78.68842052 13.35891934 76.74359131 13.34051514 C71.62753724 13.2967989 66.51165478 13.27683303 61.39544678 13.26177979 C56.17368403 13.24222414 50.95210703 13.20025239 45.73046875 13.16015625 C35.48700496 13.08480758 25.24367555 13.03661612 15 13 C15 20.26 15 27.52 15 35 C17.15490967 34.99476318 19.30981934 34.98952637 21.5300293 34.98413086 C28.65462851 34.96755149 35.77922857 34.95651134 42.90384197 34.94818783 C47.22293303 34.94297214 51.54200431 34.93589832 55.86108398 34.92456055 C60.03022773 34.91368501 64.19935246 34.90771326 68.36850929 34.90512276 C69.95809033 34.90327693 71.54767034 34.8996725 73.13724327 34.89426994 C75.36585098 34.88699759 77.59438036 34.88601167 79.82299805 34.88647461 C81.72495186 34.88314369 81.72495186 34.88314369 83.66532898 34.87974548 C86.59001004 34.98521499 89.15206878 35.38899691 92 36 C93.010625 35.938125 94.02125 35.87625 95.0625 35.8125 C98 36 98 36 100.375 38 C100.91125 38.66 101.4475 39.32 102 40 C100.61105801 43.21982006 99.05753064 45.07349534 96.375 47.3125 C94.14715885 49.17644695 91.96755831 51.03113212 89.87109375 53.04296875 C89.19175781 53.68878906 88.51242188 54.33460938 87.8125 55 C87.20019531 55.598125 86.58789062 56.19625 85.95703125 56.8125 C84 58 84 58 81.63671875 57.875 C79 57 79 57 76.29660034 55.47233582 C72.48358309 53.7693566 69.78276272 53.60365712 65.61767578 53.56762695 C64.90478897 53.5574353 64.19190216 53.54724365 63.45741272 53.53674316 C61.11996469 53.50674301 58.78292732 53.49736751 56.4453125 53.48828125 C54.81719617 53.47142487 53.18909277 53.45327333 51.56100464 53.43388367 C47.2900395 53.38648148 43.01912684 53.35660906 38.74798584 53.33044434 C33.61577416 53.29533392 28.48376392 53.23834911 23.35171509 53.18505096 C15.56783596 53.1066517 7.78421845 53.05595992 0 53 C0 35.51 0 18.02 0 0 Z " fill="#1F9FCD" transform="translate(134,179)"/>
<path d="M0 0 C22.77 0 45.54 0 69 0 C69 5.61 69 11.22 69 17 C60.75 17 52.5 17 44 17 C44 46.04 44 75.08 44 105 C38.06 105 32.12 105 26 105 C26 75.96 26 46.92 26 17 C17.42 17 8.84 17 0 17 C0 11.39 0 5.78 0 0 Z " fill="#F9F9F9" transform="translate(343,180)"/>
<path d="M0 0 C0 5.28 0 10.56 0 16 C8.91 16 17.82 16 27 16 C27 45.37 27 74.74 27 105 C32.94 105 38.88 105 45 105 C43.35 106.65 41.7 108.3 40 110 C37.525 112.97 37.525 112.97 35 116 C27.74 116 20.48 116 13 116 C13 86.63 13 57.26 13 27 C4.42 27 -4.16 27 -13 27 C-13 25.68 -13 24.36 -13 23 C-13.53592773 23.64960693 -14.07185547 24.29921387 -14.62402344 24.96850586 C-17.61946601 27.52965235 -19.11940177 27.49709053 -23.015625 27.50390625 C-24.18480469 27.52259766 -25.35398437 27.54128906 -26.55859375 27.56054688 C-27.77675781 27.56119141 -28.99492187 27.56183594 -30.25 27.5625 C-40.32339532 27.60028873 -47.89508929 28.00211257 -56.5 33.6875 C-57.1703125 34.12449219 -57.840625 34.56148437 -58.53125 35.01171875 C-59.25828125 35.50091797 -59.25828125 35.50091797 -60 36 C-58.09202447 28.17730032 -53.57160154 23.75358325 -46.875 19.625 C-41.24548656 16.34550152 -37.14259185 15.87641829 -30.609375 15.90234375 C-29.55245453 15.90446617 -29.55245453 15.90446617 -28.47418213 15.90663147 C-26.23274416 15.91221067 -23.99140757 15.92475927 -21.75 15.9375 C-20.22656395 15.94251769 -18.70312632 15.94708013 -17.1796875 15.95117188 C-13.45309228 15.96217326 -9.72655604 15.97942354 -6 16 C-6.02827881 15.24291748 -6.05655762 14.48583496 -6.08569336 13.70581055 C-6.1186853 12.21754761 -6.1186853 12.21754761 -6.15234375 10.69921875 C-6.18062256 9.71526123 -6.20890137 8.73130371 -6.23803711 7.7175293 C-5.98231502 4.79810104 -5.61213506 3.83436322 -3.5625 1.8125 C-1 0 -1 0 0 0 Z " fill="#181B2D" transform="translate(342,181)"/>
<path d="M0 0 C0.33 0 0.66 0 1 0 C1 18.48 1 36.96 1 56 C8.47269531 55.97679687 15.94539063 55.95359375 23.64453125 55.9296875 C28.37044617 55.91947194 33.09634753 55.90984425 37.82226562 55.90234375 C45.32823503 55.89037472 52.83415579 55.87619499 60.34008789 55.84912109 C66.38954388 55.82743655 72.43894771 55.81544063 78.48843956 55.81024551 C80.79977935 55.80654186 83.11111619 55.79930985 85.42243385 55.78853989 C88.6525356 55.77408337 91.88242009 55.77201962 95.11254883 55.77294922 C96.07423981 55.76575867 97.03593079 55.75856812 98.02676392 55.75115967 C99.34555794 55.75528366 99.34555794 55.75528366 100.69099426 55.75949097 C101.45516065 55.75764738 102.21932703 55.75580379 103.00664997 55.75390434 C105 56 105 56 108 58 C110.32387947 58.39387788 112.65793749 58.73486085 115 59 C109.2083907 66.653198 109.2083907 66.653198 104.64934158 67.36914349 C103.77548183 67.36637811 102.90162209 67.36361273 102.00128174 67.36076355 C100.99449875 67.36488754 99.98771576 67.36901154 98.95042419 67.3732605 C97.30288902 67.35708176 97.30288902 67.35708176 95.62207031 67.34057617 C94.46081131 67.34101425 93.29955231 67.34145233 92.10310364 67.34190369 C88.2612736 67.33981216 84.41987889 67.31646312 80.578125 67.29296875 C77.915825 67.28737409 75.25354917 67.28295583 72.59124756 67.28010559 C66.29788826 67.27078412 60.00468544 67.24616907 53.71139503 67.21605712 C46.5458017 67.1825162 39.38020088 67.1660279 32.21454859 67.15097082 C17.47628572 67.11961954 2.73814559 67.06685711 -12 67 C-12.28076848 59.53020395 -12.47229371 52.06178418 -12.60424805 44.58789062 C-12.65929452 42.05026414 -12.73416029 39.51298219 -12.82983398 36.9765625 C-13.68960686 13.58338406 -13.68960686 13.58338406 -8.06465149 6.86334229 C-5.86294817 4.67575008 -3.53512068 2.78609073 -1 1 C-0.67 0.67 -0.34 0.34 0 0 Z " fill="#13172B" transform="translate(133,272)"/>
<path d="M0 0 C0.33 0.66 0.66 1.32 1 2 C0.109375 3.99609375 0.109375 3.99609375 -1.25 6.4375 C-6.16731799 15.98449342 -7.37716488 24.31366173 -7 35 C-1.39 35.33 4.22 35.66 10 36 C10 37.32 10 38.64 10 40 C4.39 40 -1.22 40 -7 40 C-2.58317465 57.49062837 4.22840891 71.10602442 20.15234375 80.7109375 C30.22471177 85.27044566 39.75394032 85.5301289 50.625 85.6875 C52.21747488 85.72073736 53.80992403 85.75523275 55.40234375 85.79101562 C59.26808537 85.87517855 63.13377615 85.94232846 67 86 C67 88 67 88 64.75 90.375 C63.8425 91.24125 62.935 92.1075 62 93 C61.18329834 94.05695068 61.18329834 94.05695068 60.35009766 95.13525391 C56.97559921 97.81283744 53.77230483 97.53699647 49.6484375 97.4609375 C48.83436432 97.46002106 48.02029114 97.45910461 47.18154907 97.4581604 C45.4583758 97.4521243 43.73521303 97.43637785 42.01220703 97.41162109 C39.40486912 97.37541477 36.79896788 97.37059999 34.19140625 97.37109375 C18.66165541 97.30762027 6.20619107 95.80717703 -5.8125 84.8125 C-15.24411645 74.50459645 -18.70946762 62.55059002 -20 49 C-20.33 48.34 -20.66 47.68 -21 47 C-22.19537517 32.77307581 -18.72528786 21.27903065 -10 10 C-6.7981905 6.51774003 -3.46766773 3.21648858 0 0 Z " fill="#171A2D" transform="translate(268,200)"/>
<path d="M0 0 C0.33 0 0.66 0 1 0 C1 17.16 1 34.32 1 52 C6.176875 51.95359375 11.35375 51.9071875 16.6875 51.859375 C19.97788478 51.83892361 23.2681906 51.819667 26.55859375 51.8046875 C31.77506903 51.78082659 36.991262 51.75267654 42.20751953 51.69824219 C46.41560957 51.65460613 50.62339663 51.6308256 54.83169556 51.62049103 C56.43279791 51.61313137 58.0338847 51.5987598 59.63485718 51.57707977 C69.64161758 51.4470269 76.73528885 51.6712375 84.8125 58.3125 C88.7146551 63.10657627 90.52467349 67.68843587 90.3046875 73.93359375 C89.77271201 77.54147881 88.43293746 80.65647925 87 84 C81.26708545 82.66716145 78.64723796 80.02936224 74.9375 75.75 C74.43412109 75.18925781 73.93074219 74.62851563 73.41210938 74.05078125 C71.06272012 71.41873585 68.88696613 68.83744739 66.86740112 65.93313599 C64.66210884 63.30467719 64.12087373 63.02662051 60.55143738 62.24050903 C59.21727486 62.20566221 57.88201156 62.20318579 56.54760742 62.22705078 C55.8153595 62.21642105 55.08311157 62.20579132 54.32867432 62.19483948 C51.92023475 62.16684445 49.51399575 62.18083056 47.10546875 62.1953125 C45.43107697 62.18405951 43.75670097 62.17017761 42.08235168 62.15377808 C37.68454938 62.11774868 33.28744238 62.11736532 28.88952637 62.12445068 C24.39822969 62.12536375 19.90719336 62.09250283 15.41601562 62.0625 C6.61058136 62.00864594 -2.19440529 61.99245487 -11 62 C-11.17792768 55.00779391 -11.30025694 48.01617425 -11.38452148 41.0222168 C-11.41965856 38.64471624 -11.46737953 36.26736623 -11.52807617 33.89038086 C-11.61328709 30.466907 -11.65275737 27.04543693 -11.68359375 23.62109375 C-11.71972275 22.56353378 -11.75585175 21.50597382 -11.79307556 20.41636658 C-11.79692168 13.1382289 -11.79692168 13.1382289 -9.47854614 9.82693481 C-7.73127174 8.08262146 -5.91598355 6.55288183 -4 5 C-2.65807132 3.34024611 -1.32090525 1.67653359 0 0 Z " fill="#13182C" transform="translate(133,180)"/>
<path d="M0 0 C0.33 0 0.66 0 1 0 C1.00410889 0.6705542 1.00821777 1.3411084 1.01245117 2.03198242 C1.04544643 5.08470391 1.1160962 8.1354453 1.1875 11.1875 C1.19330078 12.24259766 1.19910156 13.29769531 1.20507812 14.38476562 C1.23408203 15.40634766 1.26308594 16.42792969 1.29296875 17.48046875 C1.3086792 18.41785889 1.32438965 19.35524902 1.34057617 20.32104492 C2.28009556 24.13790767 3.95796182 25.54753241 7 28 C9.75876902 28.46380469 11.88806798 28.62506159 14.63256836 28.54833984 C15.76037468 28.54719933 15.76037468 28.54719933 16.91096497 28.54603577 C18.53755669 28.54152581 20.16414816 28.52574077 21.7905407 28.49988937 C24.36806894 28.46050624 26.94381431 28.45402944 29.5216217 28.45645142 C36.84709251 28.45681442 44.17177374 28.3929586 51.49682617 28.31933594 C55.98320505 28.27650452 60.46867981 28.26764597 64.95523262 28.2783699 C67.48991671 28.27350927 70.02191162 28.22844496 72.55613708 28.18270874 C83.6921153 28.12845197 83.6921153 28.12845197 87.41189575 30.60723877 C89.09204102 32.54541016 89.09204102 32.54541016 91 36 C90.01 36 89.02 36 88 36 C87.1442337 34.78290092 87.1442337 34.78290092 86.2711792 33.54121399 C84.18143306 30.68597622 84.18143306 30.68597622 80.67169189 30.36076355 C79.33520729 30.32866686 77.99789739 30.32379055 76.66113281 30.34057617 C75.92903091 30.33009247 75.19692902 30.31960876 74.44264221 30.30880737 C72.02903824 30.28006515 69.61686939 30.28634724 67.203125 30.29296875 C65.52730512 30.27985308 63.85150106 30.26454925 62.17572021 30.24714661 C57.76979243 30.20726782 53.3642779 30.19710436 48.95819092 30.19311523 C44.46028077 30.18378915 39.96261398 30.14637896 35.46484375 30.11132812 C26.64324056 30.04672313 17.82181905 30.01350697 9 30 C9 30.66 9 31.32 9 32 C9.89456406 31.97779388 10.78912811 31.95558777 11.71080017 31.93270874 C20.1694366 31.73177029 28.62726417 31.57980953 37.08774471 31.48187828 C41.43689771 31.42983416 45.78406817 31.35933657 50.13208008 31.24560547 C54.33385525 31.13639593 58.5337328 31.07704784 62.73681831 31.05122757 C64.33455842 31.03284593 65.93220238 30.99694612 67.52912712 30.94269943 C80.01764518 30.53560915 80.01764518 30.53560915 85.00857544 34.22247314 C89.8243463 39.48774437 92.15526044 42.8580198 92 50 C91.67 50 91.34 50 91 50 C91 48.35 91 46.7 91 45 C87.41548691 45.05189759 83.83337949 45.14697784 80.25 45.25 C78.72632813 45.27126953 78.72632813 45.27126953 77.171875 45.29296875 C76.1921875 45.32519531 75.2125 45.35742188 74.203125 45.390625 C72.85202637 45.4220459 72.85202637 45.4220459 71.47363281 45.45410156 C68.84397678 45.77957381 68.84397678 45.77957381 67.22949219 48.0057373 C64.30557058 50.62116149 62.73555409 50.48565491 58.85449219 50.45410156 C57.61350769 50.45379944 56.37252319 50.45349731 55.09393311 50.45318604 C53.74490718 50.43276115 52.39588783 50.41189719 51.046875 50.390625 C49.66254494 50.38316102 48.27820428 50.37746883 46.89385986 50.37347412 C43.25710683 50.35822974 39.62099675 50.31895952 35.98449707 50.2746582 C32.27100318 50.23367892 28.55740501 50.21545751 24.84375 50.1953125 C17.56220746 50.15246301 10.28119395 50.08422754 3 50 C3.1095693 53.45900478 3.24026848 56.91689109 3.375 60.375 C3.4059375 61.35984375 3.436875 62.3446875 3.46875 63.359375 C3.52675781 64.77089844 3.52675781 64.77089844 3.5859375 66.2109375 C3.6173584 67.08024902 3.6487793 67.94956055 3.68115234 68.84521484 C3.81229433 71.20961794 3.81229433 71.20961794 6 73 C6.36023622 75.80984248 6.38332602 77.38241919 4.875 79.8125 C2.16554166 81.52849028 0.13704316 81.333728 -3 81 C-5 79 -5 79 -5.3125 76.0625 C-5 73 -5 73 -3.75 71.125 C-2 70 -2 70 2 70 C2 63.4 2 56.8 2 50 C-5.63911191 49.86792344 -5.63911191 49.86792344 -12 53 C-14.5 53.25 -14.5 53.25 -17 53 C-19 51 -19 51 -19.25 48 C-19 45 -19 45 -17 43 C-14 42.6875 -14 42.6875 -11 43 C-9 46 -9 46 -9 49 C-5.37 49 -1.74 49 2 49 C-0.08906965 45.13961564 -2.35798817 42.53447389 -5.6875 39.6875 C-6.49574219 38.99011719 -7.30398437 38.29273438 -8.13671875 37.57421875 C-8.75160156 37.05472656 -9.36648437 36.53523438 -10 36 C-8.515 35.505 -8.515 35.505 -7 35 C-6.44570312 35.56589844 -5.89140625 36.13179687 -5.3203125 36.71484375 C-4.23363281 37.81505859 -4.23363281 37.81505859 -3.125 38.9375 C-2.40570313 39.66839844 -1.68640625 40.39929688 -0.9453125 41.15234375 C0.87027192 43.05667999 0.87027192 43.05667999 3 44 C3 45.32 3 46.64 3 48 C6.69854541 46.1507273 8.95239035 43.94355182 11.625 40.875 C14.95025731 37.39714962 17.14063094 36.42957558 21.9375 36.0625 C23.34322266 36.04896484 23.34322266 36.04896484 24.77734375 36.03515625 C26.97369747 36.25824763 26.97369747 36.25824763 28 35 C26.73285156 35.04382813 25.46570313 35.08765625 24.16015625 35.1328125 C22.4609355 35.1328125 20.76171321 35.13006095 19.0625 35.125 C17.81629883 35.17914063 17.81629883 35.17914063 16.54492188 35.234375 C13.73160289 35.19058793 11.64795416 34.98317339 9 34 C6.90991211 31.73779297 6.90991211 31.73779297 4.84375 29 C2.10875362 25.62184719 0.7350395 24.19119908 -3.51586914 23.08544922 C-7.56586097 22.79578627 -11.509151 22.76388373 -15.5625 22.875 C-16.96679794 22.87694568 -18.37110974 22.87437637 -19.77539062 22.8671875 C-23.18637489 22.8671875 -26.59032141 22.91264592 -30 23 C-30 20.03 -30 17.06 -30 14 C-31.32 13.67 -32.64 13.34 -34 13 C-35 12 -35 12 -35.25 9.125 C-35 6 -35 6 -33.875 4.0625 C-32 3 -32 3 -28.9375 3.1875 C-26 4 -26 4 -24 6 C-23.6875 8.4375 -23.6875 8.4375 -24 11 C-24.474375 11.433125 -24.94875 11.86625 -25.4375 12.3125 C-27.86538468 14.6056218 -27.86538468 14.6056218 -28 22 C-18.76 22 -9.52 22 0 22 C0 14.74 0 7.48 0 0 Z " fill="#525975" transform="translate(101,218)"/>
<path d="M0 0 C0.99 0.33 1.98 0.66 3 1 C3.495 3.475 3.495 3.475 4 6 C5.7492214 6.08142927 7.49954542 6.13938541 9.25 6.1875 C10.22453125 6.22230469 11.1990625 6.25710938 12.203125 6.29296875 C15.40385685 5.95769656 16.58504863 5.03561166 19 3 C19.66 3 20.32 3 21 3 C23.56815939 5.8053245 25.74842357 8.93785606 28 12 C28.66515625 12.8971875 29.3303125 13.794375 30.015625 14.71875 C35 21.60772358 35 21.60772358 35 25 C23.73358513 25.11627527 12.46731496 25.20490807 1.20042038 25.25906086 C-4.03229341 25.28506249 -9.26459416 25.32028686 -14.49707031 25.37719727 C-19.55457318 25.43185516 -24.61168085 25.46149135 -29.66945648 25.47438622 C-31.59103356 25.4835658 -33.51259105 25.50149034 -35.43399811 25.52865028 C-46.64054997 25.68064044 -54.8952155 25.28271114 -65 20 C-65 15.71 -65 11.42 -65 7 C-43.55 6.67 -22.1 6.34 0 6 C0 4.02 0 2.04 0 0 Z " fill="#219CCB" transform="translate(200,263)"/>
<path d="M0 0 C1.94229492 0.00676758 1.94229492 0.00676758 3.92382812 0.01367188 C7.09507226 0.02537388 10.26629236 0.04330641 13.4375 0.0625 C13.4375 6.0025 13.4375 11.9425 13.4375 18.0625 C10.14652344 18.10117188 10.14652344 18.10117188 6.7890625 18.140625 C4.63089945 18.17919284 2.47296356 18.22430471 0.31494141 18.27001953 C-1.16866958 18.29800006 -2.6524233 18.31932694 -4.13623047 18.33349609 C-14.49578331 18.43827916 -23.00221394 19.31999977 -31.8125 25.25 C-40.70598463 34.34560929 -42.79757141 43.70799987 -44.5625 56.0625 C-50.5025 56.0625 -56.4425 56.0625 -62.5625 56.0625 C-63.28874412 40.99293447 -59.17296905 28.40871377 -49.375 16.9375 C-35.17364638 1.82068722 -19.85628989 -0.13203671 0 0 Z " fill="#F4F4F4" transform="translate(322.5625,178.9375)"/>
<path d="M0 0 C5.94 0 11.88 0 18 0 C18.515625 1.464375 19.03125 2.92875 19.5625 4.4375 C23.26415875 13.58810398 29.07067166 20.57882282 38 25 C42.84688897 26.5894776 47.15446499 27.2829476 52.24609375 27.4140625 C52.90207047 27.43342865 53.55804718 27.4527948 54.23390198 27.4727478 C56.30164128 27.53188909 58.36943829 27.57866229 60.4375 27.625 C61.85093394 27.66324033 63.26434609 27.70229545 64.67773438 27.7421875 C68.11836747 27.8390499 71.5588063 27.91913088 75 28 C75 33.61 75 39.22 75 45 C70.1980103 45.06933354 65.39779685 45.12892271 60.59570312 45.16479492 C58.96641109 45.17976766 57.33715855 45.20015321 55.70800781 45.22631836 C39.33501334 45.4824603 27.33162705 43.02869187 14.875 31.5625 C6.38319788 22.66887759 1.33819676 12.21104543 0 0 Z " fill="#F6F6F6" transform="translate(261,241)"/>
<path d="M0 0 C28.71 0 57.42 0 87 0 C87.495 1.485 87.495 1.485 88 3 C90.97 3.33 93.94 3.66 97 4 C92.37035709 10.55918775 92.37035709 10.55918775 88.99274063 11.64568901 C86.62529794 11.85972422 84.34150818 11.86678406 81.96533203 11.79467773 C81.07688095 11.79569992 80.18842987 11.79672211 79.27305603 11.79777527 C76.35007067 11.79291638 73.43024876 11.73855798 70.5078125 11.68359375 C68.47616278 11.67053146 66.44449096 11.66057027 64.41281128 11.65357971 C59.07587373 11.62690398 53.74027834 11.5581849 48.40386963 11.48065186 C42.95432694 11.40893266 37.5045665 11.37704962 32.0546875 11.34179688 C21.36920327 11.26681419 10.68471342 11.14740532 0 11 C0 7.37 0 3.74 0 0 Z " fill="#131729" transform="translate(150,193)"/>
<path d="M0 0 C3.17269759 0.49767805 5.29989633 0.86930378 7.8671875 2.875 C8.8671875 5.3125 8.8671875 5.3125 8.8671875 13.3125 C41.2071875 13.3125 73.5471875 13.3125 106.8671875 13.3125 C107.1971875 11.9925 107.5271875 10.6725 107.8671875 9.3125 C109.8671875 7.3125 109.8671875 7.3125 112.8046875 7 C115.8671875 7.3125 115.8671875 7.3125 117.7421875 8.5 C119.27378334 10.96757108 119.29540775 12.45769831 118.8671875 15.3125 C117.7421875 17.125 117.7421875 17.125 115.8671875 18.3125 C112.8046875 18.625 112.8046875 18.625 109.8671875 18.3125 C108.8771875 17.3225 108.8771875 17.3225 107.8671875 16.3125 C105.97100569 16.00978313 105.97100569 16.00978313 103.77455139 16.05853271 C102.48956505 16.05007324 102.48956505 16.05007324 101.17861938 16.04144287 C99.76581192 16.04751556 99.76581192 16.04751556 98.32446289 16.05371094 C97.33412552 16.0502063 96.34378815 16.04670166 95.32344055 16.04309082 C92.03717111 16.03426069 88.75111553 16.04012766 85.46484375 16.046875 C83.18802346 16.04552861 80.91120346 16.0435883 78.63438416 16.04107666 C73.85689564 16.03812357 69.0794818 16.04242861 64.30200195 16.05175781 C58.17040842 16.06314594 52.03899008 16.05659802 45.90740299 16.04461288 C41.20375747 16.03739379 36.50015364 16.03968257 31.79650688 16.04486847 C29.5354148 16.04620516 27.27431897 16.04455657 25.01323128 16.03990936 C21.85515411 16.03484409 18.69736249 16.04255484 15.53930664 16.05371094 C14.59945923 16.04966248 13.65961182 16.04561401 12.69128418 16.04144287 C11.83180679 16.04708252 10.97232941 16.05272217 10.08680725 16.05853271 C9.33998719 16.05928677 8.59316713 16.06004082 7.82371616 16.06081772 C5.54473068 16.206798 5.54473068 16.206798 2.8671875 18.3125 C-1.20772002 18.65207563 -2.66282521 18.62582486 -6.1328125 16.3125 C-8.45441922 15.98527829 -8.45441922 15.98527829 -11.06323242 15.99365234 C-12.56444893 15.96384781 -12.56444893 15.96384781 -14.09599304 15.93344116 C-15.17419815 15.92188995 -16.25240326 15.91033875 -17.36328125 15.8984375 C-18.46883865 15.87907135 -19.57439606 15.8597052 -20.7134552 15.8397522 C-24.24899551 15.77991164 -27.78456829 15.7335527 -31.3203125 15.6875 C-33.71550909 15.64932438 -36.1106919 15.6102729 -38.50585938 15.5703125 C-44.38138814 15.47420642 -50.25699975 15.38917196 -56.1328125 15.3125 C-54.18012421 11.1359846 -52.00288765 7.91295183 -48.1328125 5.3125 C-44.98855948 4.5104383 -41.98404502 4.56621043 -38.75390625 4.6484375 C-37.86421646 4.64421783 -36.97452667 4.63999817 -36.05787659 4.63565063 C-33.22782995 4.62481795 -30.40014024 4.65280479 -27.5703125 4.6875 C-24.73723523 4.71157646 -21.90521081 4.72672301 -19.07203674 4.71792603 C-17.31346046 4.71336262 -15.55470108 4.72795331 -13.79649353 4.76425171 C-7.64816197 4.76154651 -5.22850877 0.76608187 0 0 Z " fill="#329BC4" transform="translate(244.1328125,312.6875)"/>
<path d="M0 0 C29.37 0 58.74 0 89 0 C90.32 2.31 91.64 4.62 93 7 C89.43479509 10.58699695 86.83304174 11.46059905 81.79330444 11.49768066 C80.98841583 11.48329956 80.18352722 11.46891846 79.35424805 11.45410156 C78.06568153 11.45497772 78.06568153 11.45497772 76.75108337 11.45587158 C73.92087945 11.4530921 71.09173794 11.42200683 68.26171875 11.390625 C66.29588903 11.38316212 64.33005186 11.37746941 62.36421204 11.37347412 C57.19700483 11.35822153 52.0302493 11.31894275 46.86322021 11.2746582 C41.58791209 11.23369754 36.31253078 11.21546139 31.03710938 11.1953125 C20.6912081 11.1524483 10.34564165 11.08420133 0 11 C0 7.37 0 3.74 0 0 Z " fill="#22253C" transform="translate(150,306)"/>
<path d="M0 0 C0.33 0 0.66 0 1 0 C1.00410889 0.6705542 1.00821777 1.3411084 1.01245117 2.03198242 C1.04544643 5.08470391 1.1160962 8.1354453 1.1875 11.1875 C1.19330078 12.24259766 1.19910156 13.29769531 1.20507812 14.38476562 C1.23408203 15.40634766 1.26308594 16.42792969 1.29296875 17.48046875 C1.3086792 18.41785889 1.32438965 19.35524902 1.34057617 20.32104492 C2.28009556 24.13790767 3.95796182 25.54753241 7 28 C9.75876902 28.46380469 11.88806798 28.62506159 14.63256836 28.54833984 C15.76037468 28.54719933 15.76037468 28.54719933 16.91096497 28.54603577 C18.53755669 28.54152581 20.16414816 28.52574077 21.7905407 28.49988937 C24.36806894 28.46050624 26.94381431 28.45402944 29.5216217 28.45645142 C36.84709251 28.45681442 44.17177374 28.3929586 51.49682617 28.31933594 C55.98320505 28.27650452 60.46867981 28.26764597 64.95523262 28.2783699 C67.48991671 28.27350927 70.02191162 28.22844496 72.55613708 28.18270874 C83.6921153 28.12845197 83.6921153 28.12845197 87.41189575 30.60723877 C89.09204102 32.54541016 89.09204102 32.54541016 91 36 C90.01 36 89.02 36 88 36 C87.1442337 34.78290092 87.1442337 34.78290092 86.2711792 33.54121399 C84.18143306 30.68597622 84.18143306 30.68597622 80.67169189 30.36076355 C79.33520729 30.32866686 77.99789739 30.32379055 76.66113281 30.34057617 C75.92903091 30.33009247 75.19692902 30.31960876 74.44264221 30.30880737 C72.02903824 30.28006515 69.61686939 30.28634724 67.203125 30.29296875 C65.52730512 30.27985308 63.85150106 30.26454925 62.17572021 30.24714661 C57.76979243 30.20726782 53.3642779 30.19710436 48.95819092 30.19311523 C44.46028077 30.18378915 39.96261398 30.14637896 35.46484375 30.11132812 C26.64324056 30.04672313 17.82181905 30.01350697 9 30 C9 30.66 9 31.32 9 32 C9.89456406 31.97779388 10.78912811 31.95558777 11.71080017 31.93270874 C20.1694366 31.73177029 28.62726417 31.57980953 37.08774471 31.48187828 C41.43689771 31.42983416 45.78406817 31.35933657 50.13208008 31.24560547 C54.33385525 31.13639593 58.5337328 31.07704784 62.73681831 31.05122757 C64.33455842 31.03284593 65.93220238 30.99694612 67.52912712 30.94269943 C80.01764518 30.53560915 80.01764518 30.53560915 85.00857544 34.22247314 C89.8243463 39.48774437 92.15526044 42.8580198 92 50 C91.67 50 91.34 50 91 50 C91 48.35 91 46.7 91 45 C87.41548691 45.05189759 83.83337949 45.14697784 80.25 45.25 C78.72632813 45.27126953 78.72632813 45.27126953 77.171875 45.29296875 C76.1921875 45.32519531 75.2125 45.35742188 74.203125 45.390625 C72.85202637 45.4220459 72.85202637 45.4220459 71.47363281 45.45410156 C68.84397678 45.77957381 68.84397678 45.77957381 67.22949219 48.0057373 C64.30557058 50.62116149 62.73555409 50.48565491 58.85449219 50.45410156 C57.61350769 50.45379944 56.37252319 50.45349731 55.09393311 50.45318604 C53.74490718 50.43276115 52.39588783 50.41189719 51.046875 50.390625 C49.66254494 50.38316102 48.27820428 50.37746883 46.89385986 50.37347412 C43.25710683 50.35822974 39.62099675 50.31895952 35.98449707 50.2746582 C32.27100318 50.23367892 28.55740501 50.21545751 24.84375 50.1953125 C17.56220746 50.15246301 10.28119395 50.08422754 3 50 C3.1095693 53.45900478 3.24026848 56.91689109 3.375 60.375 C3.4059375 61.35984375 3.436875 62.3446875 3.46875 63.359375 C3.52675781 64.77089844 3.52675781 64.77089844 3.5859375 66.2109375 C3.6173584 67.08024902 3.6487793 67.94956055 3.68115234 68.84521484 C3.81229433 71.20961794 3.81229433 71.20961794 6 73 C6.36023622 75.80984248 6.38332602 77.38241919 4.875 79.8125 C2.16554166 81.52849028 0.13704316 81.333728 -3 81 C-5 79 -5 79 -5.3125 76.0625 C-5 73 -5 73 -3.75 71.125 C-2 70 -2 70 2 70 C2 63.4 2 56.8 2 50 C-5.63911191 49.86792344 -5.63911191 49.86792344 -12 53 C-14.5 53.25 -14.5 53.25 -17 53 C-19 51 -19 51 -19.25 48 C-19 45 -19 45 -17 43 C-14 42.6875 -14 42.6875 -11 43 C-9 46 -9 46 -9 49 C-5.37 49 -1.74 49 2 49 C-0.08906965 45.13961564 -2.35798817 42.53447389 -5.6875 39.6875 C-6.49574219 38.99011719 -7.30398437 38.29273438 -8.13671875 37.57421875 C-8.75160156 37.05472656 -9.36648437 36.53523438 -10 36 C-8.515 35.505 -8.515 35.505 -7 35 C-6.44570312 35.56589844 -5.89140625 36.13179687 -5.3203125 36.71484375 C-4.23363281 37.81505859 -4.23363281 37.81505859 -3.125 38.9375 C-2.40570313 39.66839844 -1.68640625 40.39929688 -0.9453125 41.15234375 C0.87027192 43.05667999 0.87027192 43.05667999 3 44 C3 45.32 3 46.64 3 48 C6.69854541 46.1507273 8.95239035 43.94355182 11.625 40.875 C14.95025731 37.39714962 17.14063094 36.42957558 21.9375 36.0625 C23.34322266 36.04896484 23.34322266 36.04896484 24.77734375 36.03515625 C26.97369747 36.25824763 26.97369747 36.25824763 28 35 C26.73285156 35.04382813 25.46570313 35.08765625 24.16015625 35.1328125 C22.4609355 35.1328125 20.76171321 35.13006095 19.0625 35.125 C17.81629883 35.17914063 17.81629883 35.17914063 16.54492188 35.234375 C13.73160289 35.19058793 11.64795416 34.98317339 9 34 C6.90991211 31.73779297 6.90991211 31.73779297 4.84375 29 C2.10875362 25.62184719 0.7350395 24.19119908 -3.51586914 23.08544922 C-7.56586097 22.79578627 -11.509151 22.76388373 -15.5625 22.875 C-16.96679794 22.87694568 -18.37110974 22.87437637 -19.77539062 22.8671875 C-23.18637489 22.8671875 -26.59032141 22.91264592 -30 23 C-30 20.03 -30 17.06 -30 14 C-31.32 13.67 -32.64 13.34 -34 13 C-35 12 -35 12 -35.25 9.125 C-35 6 -35 6 -33.875 4.0625 C-32 3 -32 3 -28.9375 3.1875 C-26 4 -26 4 -24 6 C-23.6875 8.4375 -23.6875 8.4375 -24 11 C-24.474375 11.433125 -24.94875 11.86625 -25.4375 12.3125 C-27.86538468 14.6056218 -27.86538468 14.6056218 -28 22 C-18.76 22 -9.52 22 0 22 C0 14.74 0 7.48 0 0 Z M28 37 C25.65234375 37.16015625 25.65234375 37.16015625 22.9375 37.0625 C16.1947912 37.43110141 13.19145881 40.94278849 8.80078125 45.75 C6.89585661 47.64980709 6.89585661 47.64980709 7 49 C14.32807436 49.11610551 21.65594881 49.20482122 28.98475838 49.25906086 C32.38828256 49.28510024 35.79117519 49.32039092 39.19433594 49.37719727 C43.11124989 49.4421664 47.02791258 49.46622753 50.9453125 49.48828125 C52.16115021 49.51408768 53.37698792 49.5398941 54.62966919 49.56648254 C61.62287175 49.75052044 61.62287175 49.75052044 67.51953125 46.51367188 C68.33808594 45.68416016 69.15664062 44.85464844 70 44 C72.42529297 43.34057617 72.42529297 43.34057617 74.7421875 43.29296875 C75.58007812 43.26396484 76.41796875 43.23496094 77.28125 43.20507812 C78.56515625 43.19637695 78.56515625 43.19637695 79.875 43.1875 C80.75414062 43.16236328 81.63328125 43.13722656 82.5390625 43.11132812 C84.6922332 43.05281805 86.84616221 43.02345764 89 43 C89 42.67 89 42.34 89 42 C83.39 42 77.78 42 72 42 C72 41.34 72 40.68 72 40 C76.62 40 81.24 40 86 40 C84.82463538 37.29529908 84.18072966 35.88970427 82 34 C78.20183461 33.08694532 74.44771051 33.23136166 70.55859375 33.30859375 C69.43937027 33.30996841 68.32014679 33.31134308 67.16700745 33.3127594 C64.80240326 33.32181832 62.43781656 33.34545247 60.07348633 33.38256836 C56.44743704 33.43734987 52.82368556 33.4440974 49.19726562 33.44335938 C46.90102173 33.45810539 44.60479345 33.47559058 42.30859375 33.49609375 C41.22106308 33.49943222 40.13353241 33.50277069 39.01304626 33.50621033 C37.50116478 33.53491966 37.50116478 33.53491966 35.95874023 33.56420898 C35.07145737 33.57564438 34.1841745 33.58707977 33.27000427 33.59886169 C30.5493872 34.07962895 29.80898816 34.99348897 28 37 Z " fill="#C9D0DC" transform="translate(101,218)"/>
<path d="M0 0 C3.62488685 3.11679602 4.84606479 5.73950057 6.125 10.3125 C6.43695313 11.40175781 6.74890625 12.49101562 7.0703125 13.61328125 C7.37710938 14.73089844 7.68390625 15.84851563 8 17 C8.36222656 18.11117187 8.72445312 19.22234375 9.09765625 20.3671875 C10.151672 24.61062754 10.34203746 28.46033921 10.3125 32.8125 C10.31121094 33.60060059 10.30992187 34.38870117 10.30859375 35.20068359 C10.21046328 41.16333618 9.3349733 46.46833706 7 52 C2.75200574 48.1502552 -0.36279328 43.78009688 -3.671875 39.11328125 C-6.68129868 35.08893449 -9.94802829 31.31713934 -13.31884766 27.59179688 C-16.26845821 24.23472307 -17.87544358 21.32372553 -19 17 C-16.21190822 14.35037781 -13.41893556 11.70595833 -10.625 9.0625 C-9.8309375 8.30775391 -9.036875 7.55300781 -8.21875 6.77539062 C-7.45820313 6.05673828 -6.69765625 5.33808594 -5.9140625 4.59765625 C-4.8614624 3.60004272 -4.8614624 3.60004272 -3.78759766 2.58227539 C-2 1 -2 1 0 0 Z " fill="#1E9ECD" transform="translate(239,225)"/>
<path d="M0 0 C27.39 0 54.78 0 83 0 C74.47489498 9.94595585 74.47489498 9.94595585 70.82991028 10.36076355 C68.86799995 10.3507708 68.86799995 10.3507708 66.86645508 10.34057617 C65.78315163 10.34123329 65.78315163 10.34123329 64.67796326 10.34190369 C62.29154395 10.33981414 59.90582777 10.31647613 57.51953125 10.29296875 C55.86472457 10.28737336 54.20991292 10.283103 52.55509949 10.28010559 C48.20006586 10.26865224 43.84533249 10.23918098 39.49041748 10.20599365 C35.04638735 10.17530326 30.60230869 10.16160247 26.15820312 10.14648438 C17.43866431 10.11431162 8.71936951 10.06310952 0 10 C0 6.7 0 3.4 0 0 Z " fill="#12172A" transform="translate(150,289)"/>
<path d="M0 0 C5.45454545 0.45454545 5.45454545 0.45454545 8 3 C8.375 5.9375 8.375 5.9375 8 9 C6.125 10.875 6.125 10.875 4 12 C3.34 12 2.68 12 2 12 C2.02282938 15.41814021 2.10017034 18.83294713 2.1875 22.25 C2.19330078 23.21808594 2.19910156 24.18617188 2.20507812 25.18359375 C2.24858398 26.58544922 2.24858398 26.58544922 2.29296875 28.015625 C2.3086792 28.87446289 2.32438965 29.73330078 2.34057617 30.61816406 C3.3157314 34.14042042 4.92811113 35.07088033 8 37 C10.92542728 37.33016119 13.45186572 37.43502208 16.36352539 37.33959961 C17.19354065 37.32905548 18.02355591 37.31851135 18.87872314 37.30764771 C20.67724793 37.28354063 22.47567451 37.25092931 24.27391243 37.21076775 C27.13013373 37.15167178 29.98489061 37.12527442 32.84165955 37.10902405 C40.96181773 37.06078577 49.08042324 36.98463358 57.19897461 36.81176758 C62.17204595 36.70823596 67.14223079 36.66914675 72.1163311 36.67016792 C74.00186525 36.65840173 75.88741824 36.62300937 77.77202034 36.56257439 C93.23419606 36.07986141 93.23419606 36.07986141 98.7326355 40.77420044 C101.36950023 43.42214533 103.63197366 46.27084943 105.79682732 49.31175423 C109.50091263 54.76306803 109.50091263 54.76306803 115 58 C115.1875 60.375 115.1875 60.375 115 63 C111.57905758 65.28062828 110.31812778 65.21925007 106.3125 65.125 C105.31863281 65.10695313 104.32476562 65.08890625 103.30078125 65.0703125 C102.54152344 65.04710937 101.78226562 65.02390625 101 65 C100.835 64.154375 100.67 63.30875 100.5 62.4375 C98.72814573 58.37700063 96.68979335 56.71893304 93.26293945 54.03062439 C90.95761922 51.96197007 89.54473946 49.88143443 87.80078125 47.33813477 C84.6051911 43.72283729 82.19690558 42.43400341 77.35751343 41.9806509 C73.50443699 41.81191272 69.66778299 41.84084988 65.8125 41.90234375 C64.14239761 41.89668464 62.47230437 41.88706578 60.80224609 41.87367249 C56.42862824 41.8491456 52.05696846 41.87805947 47.68353271 41.91845703 C43.21213245 41.95018712 38.74097635 41.93089543 34.26953125 41.91601562 C25.51246415 41.89433466 16.75680533 41.92915996 8 42 C7.72333496 41.372146 7.44666992 40.74429199 7.16162109 40.09741211 C6.0984371 37.76606225 6.0984371 37.76606225 3.4140625 36.44140625 C0.08417222 33.07379877 0.42516222 30.57152504 0.3515625 25.97460938 C0.35929687 24.97236328 0.36703125 23.97011719 0.375 22.9375 C0.375 20.946572 0.36253403 18.95559409 0.3359375 16.96484375 C0.34157715 16.0843335 0.3472168 15.20382324 0.35302734 14.29663086 C-0.07494974 11.51241204 -1.02551899 10.90056117 -3 9 C-2.66666667 2.66666667 -2.66666667 2.66666667 0 0 Z " fill="#5B657D" transform="translate(103,205)"/>
<path d="M0 0 C22.11 0 44.22 0 67 0 C67 0.33 67 0.66 67 1 C45.22 1 23.44 1 1 1 C1 17.83 1 34.66 1 52 C13.14891578 52.17120014 13.14891578 52.17120014 25.296875 52.23046875 C30.2614673 52.22994044 35.22362725 52.24178154 40.1875 52.33251953 C44.19562222 52.40495197 48.20008993 52.41753238 52.2087326 52.39070892 C53.72847622 52.39065364 55.24838176 52.41123278 56.76752472 52.4539566 C64.48106035 52.65752083 70.41570581 52.28164603 76.26223373 46.75640488 C78.63989812 44.26549514 80.82396282 41.66982434 83 39 C83.99 38.01 84.98 37.02 86 36 C62.9 36 39.8 36 16 36 C16 35.67 16 35.34 16 35 C25.17089258 34.97681556 34.34177504 34.95905378 43.51269054 34.94818783 C47.7712476 34.94297236 52.02978458 34.93589896 56.28833008 34.92456055 C60.39911916 34.9136842 64.50988894 34.90771309 68.6206913 34.90512276 C70.18794369 34.90327707 71.75519503 34.89967293 73.32243919 34.89426994 C75.5199142 34.88699652 77.71730979 34.88601172 79.91479492 34.88647461 C81.16499924 34.884254 82.41520355 34.88203339 83.70329285 34.87974548 C86.61240778 34.98586174 89.1663196 35.39360551 92 36 C93.010625 35.938125 94.02125 35.87625 95.0625 35.8125 C98 36 98 36 100.375 38 C100.91125 38.66 101.4475 39.32 102 40 C100.61105801 43.21982006 99.05753064 45.07349534 96.375 47.3125 C94.14715885 49.17644695 91.96755831 51.03113212 89.87109375 53.04296875 C89.19175781 53.68878906 88.51242188 54.33460938 87.8125 55 C87.20019531 55.598125 86.58789062 56.19625 85.95703125 56.8125 C84 58 84 58 81.63671875 57.875 C79 57 79 57 76.29660034 55.47233582 C72.48358309 53.7693566 69.78276272 53.60365712 65.61767578 53.56762695 C64.90478897 53.5574353 64.19190216 53.54724365 63.45741272 53.53674316 C61.11996469 53.50674301 58.78292732 53.49736751 56.4453125 53.48828125 C54.81719617 53.47142487 53.18909277 53.45327333 51.56100464 53.43388367 C47.2900395 53.38648148 43.01912684 53.35660906 38.74798584 53.33044434 C33.61577416 53.29533392 28.48376392 53.23834911 23.35171509 53.18505096 C15.56783596 53.1066517 7.78421845 53.05595992 0 53 C0 35.51 0 18.02 0 0 Z " fill="#336E93" transform="translate(134,179)"/>
<path d="M0 0 C9.69228657 -0.13908072 19.38422918 -0.24566104 29.07729626 -0.31087303 C33.57833818 -0.34217345 38.07869697 -0.38462147 42.5793457 -0.45263672 C46.92361973 -0.51787718 51.26723715 -0.55371575 55.61196327 -0.56926346 C57.26863251 -0.58034159 58.92526617 -0.60197559 60.5816555 -0.63438034 C62.90442624 -0.67801048 65.2244922 -0.68393203 67.54760742 -0.68115234 C68.57260094 -0.71350983 68.57260094 -0.71350983 69.61830139 -0.746521 C72.34753556 -0.71123419 74.40525123 -0.53188882 76.48339272 1.32661057 C77.7190801 2.83454461 78.86400168 4.41560857 80 6 C81.64821244 7.03013277 83.31503702 8.03114628 85 9 C87.8125 11.25 87.8125 11.25 90 14 C90.3125 17.8125 90.3125 17.8125 90 21 C86.09584752 21.72533024 82.40952217 22.12397253 78.44042969 22.11523438 C77.36545227 22.11463013 76.29047485 22.11402588 75.18292236 22.11340332 C74.02427673 22.10691772 72.8656311 22.10043213 71.671875 22.09375 C69.83456818 22.08837219 69.83456818 22.08837219 67.96014404 22.08288574 C53.7507294 22.02247442 39.54366728 21.78666699 25.33654785 21.53643799 C21.78168655 21.47435842 18.22677879 21.41505636 14.671875 21.35546875 C7.78120423 21.23958319 0.89058617 21.1208091 -6 21 C-6 20.67 -6 20.34 -6 20 C-5.23214172 19.99635437 -4.46428345 19.99270874 -3.67315674 19.98895264 C3.56622412 19.95107254 10.80509036 19.8942207 18.04413986 19.81609726 C21.76577254 19.77660173 25.48716789 19.74442382 29.20898438 19.72900391 C32.8013727 19.71385039 36.39310868 19.67942976 39.9852066 19.63169098 C41.35505755 19.61686339 42.72500163 19.60895819 44.09493256 19.60811615 C46.01489632 19.60574929 47.93476929 19.57640188 49.85449219 19.54589844 C50.94703308 19.53701599 52.03957397 19.52813354 53.16522217 19.51898193 C56.64307515 18.88226789 57.69758554 17.59339114 60 15 C62.47363281 14.54589844 62.47363281 14.54589844 65.203125 14.609375 C66.1828125 14.62226563 67.1625 14.63515625 68.171875 14.6484375 C69.18765625 14.68195313 70.2034375 14.71546875 71.25 14.75 C72.28125 14.76804687 73.3125 14.78609375 74.375 14.8046875 C76.91761064 14.85177288 79.45833162 14.9175195 82 15 C81.06927875 13.29367772 80.04575295 11.63834629 79 10 C78.54776566 9.11573586 78.54776566 9.11573586 78.08639526 8.21360779 C76.59188105 5.86004932 75.34114523 4.54895969 73 3 C67.4934335 1.93061969 62.03720861 2.04417685 56.4453125 2.09765625 C54.81718962 2.0882665 53.1890818 2.07580582 51.56100464 2.06040955 C47.28965427 2.02822709 43.01937919 2.03760957 38.74798584 2.05578613 C34.38395488 2.06695643 30.02019744 2.03862877 25.65625 2.01367188 C17.10394266 1.97055992 8.55236674 1.97137711 0 2 C0 1.34 0 0.68 0 0 Z " fill="#59647E" transform="translate(110,248)"/>
<path d="M0 0 C0.33 0 0.66 0 1 0 C1.00410889 0.6705542 1.00821777 1.3411084 1.01245117 2.03198242 C1.04544643 5.08470391 1.1160962 8.1354453 1.1875 11.1875 C1.19330078 12.24259766 1.19910156 13.29769531 1.20507812 14.38476562 C1.23408203 15.40634766 1.26308594 16.42792969 1.29296875 17.48046875 C1.3086792 18.41785889 1.32438965 19.35524902 1.34057617 20.32104492 C2.28009556 24.13790767 3.95796182 25.54753241 7 28 C9.75876902 28.46380469 11.88806798 28.62506159 14.63256836 28.54833984 C15.76037468 28.54719933 15.76037468 28.54719933 16.91096497 28.54603577 C18.53755669 28.54152581 20.16414816 28.52574077 21.7905407 28.49988937 C24.36806894 28.46050624 26.94381431 28.45402944 29.5216217 28.45645142 C36.84709251 28.45681442 44.17177374 28.3929586 51.49682617 28.31933594 C55.98320505 28.27650452 60.46867981 28.26764597 64.95523262 28.2783699 C67.48991671 28.27350927 70.02191162 28.22844496 72.55613708 28.18270874 C83.6921153 28.12845197 83.6921153 28.12845197 87.41189575 30.60723877 C89.09204102 32.54541016 89.09204102 32.54541016 91 36 C90.01 36 89.02 36 88 36 C87.43098465 35.1844162 86.8619693 34.3688324 86.27571106 33.52853394 C84.18003027 30.67082608 84.18003027 30.67082608 80.64286804 30.4458313 C79.29107847 30.4526458 77.93925538 30.48712072 76.58862305 30.54345703 C75.47807556 30.55922791 75.47807556 30.55922791 74.34509277 30.57531738 C72.74016549 30.60100486 71.13538925 30.63810607 69.53095055 30.68530655 C66.98714451 30.75851977 64.44474969 30.79855261 61.90010071 30.82955933 C54.6678044 30.92427215 47.43717386 31.08368972 40.20629883 31.25341797 C35.7798022 31.35503473 31.35379263 31.42212424 26.92640114 31.46944809 C24.42626104 31.50721517 21.92946209 31.58565169 19.43034363 31.66482544 C8.31896887 31.86743028 8.31896887 31.86743028 4.62477112 29.43791199 C2.86621094 27.5246582 2.86621094 27.5246582 1.39653015 25.6005249 C-0.0573205 23.62646878 -0.0573205 23.62646878 -3.54858398 23.11352539 C-4.76876221 23.10828857 -5.98894043 23.10305176 -7.24609375 23.09765625 C-8.23005882 23.07921913 -8.23005882 23.07921913 -9.23390198 23.06040955 C-11.30294013 23.02893724 -13.36835831 23.04487282 -15.4375 23.0625 C-16.85094423 23.04937504 -18.2643631 23.03312719 -19.67773438 23.01367188 C-23.11893994 22.97304769 -26.55857347 22.97488474 -30 23 C-30 20.03 -30 17.06 -30 14 C-31.32 13.67 -32.64 13.34 -34 13 C-35 12 -35 12 -35.25 9.125 C-35 6 -35 6 -33.875 4.0625 C-32 3 -32 3 -28.9375 3.1875 C-26 4 -26 4 -24 6 C-23.6875 8.4375 -23.6875 8.4375 -24 11 C-24.474375 11.433125 -24.94875 11.86625 -25.4375 12.3125 C-27.86538468 14.6056218 -27.86538468 14.6056218 -28 22 C-18.76 22 -9.52 22 0 22 C0 14.74 0 7.48 0 0 Z " fill="#CBD2DD" transform="translate(101,218)"/>
<path d="M0 0 C2.19963503 0.86072675 3.3488282 1.96970711 4.88671875 3.73828125 C3.49777676 6.95810131 1.94424939 8.81177659 -0.73828125 11.05078125 C-2.9661224 12.9147282 -5.14572294 14.76941337 -7.2421875 16.78125 C-7.92152344 17.42707031 -8.60085937 18.07289063 -9.30078125 18.73828125 C-10.21923828 19.63546875 -10.21923828 19.63546875 -11.15625 20.55078125 C-13.11328125 21.73828125 -13.11328125 21.73828125 -15.6640625 21.67578125 C-18.56679196 20.56468864 -19.51133932 19.35197598 -21.11328125 16.73828125 C-4.38538909 -0.54310734 -4.38538909 -0.54310734 0 0 Z " fill="#1F9ECC" transform="translate(231.11328125,215.26171875)"/>
<path d="M0 0 C5.45454545 0.45454545 5.45454545 0.45454545 8 3 C8.375 5.9375 8.375 5.9375 8 9 C6.125 10.875 6.125 10.875 4 12 C3.34 12 2.68 12 2 12 C2.02282938 15.41814021 2.10017034 18.83294713 2.1875 22.25 C2.19330078 23.21808594 2.19910156 24.18617188 2.20507812 25.18359375 C2.24858398 26.58544922 2.24858398 26.58544922 2.29296875 28.015625 C2.3086792 28.87446289 2.32438965 29.73330078 2.34057617 30.61816406 C3.31566144 34.14016771 4.93120929 35.06355858 8 37 C10.94542727 37.39538495 13.51951895 37.56472671 16.4621582 37.54589844 C17.721464 37.56140495 17.721464 37.56140495 19.00621033 37.57722473 C21.77126342 37.60663817 24.53558405 37.60815158 27.30078125 37.609375 C29.22179052 37.62435764 31.1427869 37.64108497 33.06376648 37.65948486 C38.11240228 37.70316112 43.16086431 37.72315813 48.20965576 37.73822021 C53.36448442 37.75779025 58.51912538 37.79976041 63.67382812 37.83984375 C73.7824942 37.91514889 83.89111826 37.96543858 94 38 C94 38.33 94 38.66 94 39 C82.76034418 39.11591339 71.52083085 39.20472552 60.28069878 39.25906086 C55.06126652 39.28514088 49.84224357 39.32051016 44.62304688 39.37719727 C39.58502308 39.43157339 34.54739267 39.46143254 29.50909805 39.47438622 C27.58814426 39.483616 25.6672117 39.50163994 23.74642563 39.52865028 C21.05297282 39.56501539 18.36113977 39.56994229 15.66748047 39.56762695 C14.87553787 39.58560333 14.08359528 39.60357971 13.26765442 39.62210083 C9.22160109 39.58453417 6.72116875 39.18217507 3.50361633 36.62324524 C0.72687159 33.71382085 0.26209732 32.73743332 0.30078125 28.8046875 C0.28853516 27.84175781 0.27628906 26.87882812 0.26367188 25.88671875 C0.27978516 24.89285156 0.29589844 23.89898437 0.3125 22.875 C0.32142682 20.89324542 0.31807124 18.91138676 0.30078125 16.9296875 C0.31278564 16.05554199 0.32479004 15.18139648 0.3371582 14.28076172 C-0.07369237 11.5014959 -1.03067322 10.89571014 -3 9 C-2.66666667 2.66666667 -2.66666667 2.66666667 0 0 Z " fill="#EFF5F8" transform="translate(103,205)"/>
<path d="M0 0 C9.49335809 -0.1012875 18.98501631 -0.14819156 28.47889614 -0.12697029 C32.88818755 -0.11879549 37.29581735 -0.128873 41.70483398 -0.18164062 C45.96554934 -0.2319456 50.22377296 -0.23302814 54.48463631 -0.20095444 C56.10445616 -0.19722268 57.72441732 -0.21079341 59.3439312 -0.24249649 C72.04581016 -0.47417198 72.04581016 -0.47417198 77.05715942 3.30621338 C79.29015886 5.76967902 81.21368983 8.20002756 83 11 C82.67 11.66 82.34 12.32 82 13 C76.06 13 70.12 13 64 13 C64 11.68 64 10.36 64 9 C68.29 8.67 72.58 8.34 77 8 C76.01 7.01 75.02 6.02 74 5 C74 4.34 74 3.68 74 3 C66.79151013 3.09219794 59.58335936 3.19949421 52.37524414 3.31738281 C49.92217127 3.35570954 47.46904149 3.39055582 45.01586914 3.421875 C41.49344515 3.46744507 37.97141425 3.52545321 34.44921875 3.5859375 C33.34913986 3.59748871 32.24906097 3.60903992 31.11564636 3.62094116 C30.09481461 3.64081085 29.07398285 3.66068054 28.0222168 3.68115234 C26.67319527 3.70113785 26.67319527 3.70113785 25.29692078 3.7215271 C22.72430104 3.85841974 22.72430104 3.85841974 20 6 C20 5.34 20 4.68 20 4 C13.73 3.67 7.46 3.34 1 3 C0.67 2.01 0.34 1.02 0 0 Z " fill="#C0C6D3" transform="translate(109,249)"/>
<path d="M0 0 C9.69228657 -0.13908072 19.38422918 -0.24566104 29.07729626 -0.31087303 C33.57833818 -0.34217345 38.07869697 -0.38462147 42.5793457 -0.45263672 C46.92361973 -0.51787718 51.26723715 -0.55371575 55.61196327 -0.56926346 C57.26863251 -0.58034159 58.92526617 -0.60197559 60.5816555 -0.63438034 C62.90442624 -0.67801048 65.2244922 -0.68393203 67.54760742 -0.68115234 C68.57260094 -0.71350983 68.57260094 -0.71350983 69.61830139 -0.746521 C72.34883701 -0.71121736 74.4057164 -0.53235309 76.48339272 1.32880783 C77.71792906 2.83692819 78.86338303 4.41677264 80 6 C80.825 6.495 81.65 6.99 82.5 7.5 C85.83345212 9.50007127 87.61932393 11.93913077 90 15 C88.8553125 14.4740625 88.8553125 14.4740625 87.6875 13.9375 C84.95240621 12.67639116 84.95240621 12.67639116 82 14 C81.54577164 13.22093796 81.09154327 12.44187592 80.62355042 11.63920593 C77.43358354 6.9273773 74.98265468 3.55697667 69.36178589 1.97793579 C64.96294925 1.49348078 60.56920287 1.60434377 56.15234375 1.70703125 C54.52851617 1.70510666 52.90468779 1.69832936 51.28089905 1.68693542 C47.03334263 1.67002624 42.78902069 1.71847735 38.54199219 1.78112793 C34.19793821 1.83345366 29.85406556 1.82317583 25.50976562 1.81835938 C17.00546109 1.81806092 8.50354927 1.88689377 0 2 C0 1.34 0 0.68 0 0 Z " fill="#626F82" transform="translate(110,248)"/>
<path d="M0 0 C3.0625 0.3125 3.0625 0.3125 4.9375 1.5 C6.46909584 3.96757108 6.49072025 5.45769831 6.0625 8.3125 C4.9375 10.125 4.9375 10.125 3.0625 11.3125 C-0.125 11.5 -0.125 11.5 -2.9375 11.3125 C-3.9275 9.3325 -3.9275 9.3325 -4.9375 7.3125 C-37.9375 7.3125 -70.9375 7.3125 -104.9375 7.3125 C-104.9375 6.9825 -104.9375 6.6525 -104.9375 6.3125 C-72.2675 6.3125 -39.5975 6.3125 -5.9375 6.3125 C-5.6075 4.9925 -5.2775 3.6725 -4.9375 2.3125 C-2.9375 0.3125 -2.9375 0.3125 0 0 Z " fill="#EEF1F4" transform="translate(356.9375,319.6875)"/>
<path d="M0 0 C7.59 0 15.18 0 23 0 C19.07746479 7.84507042 19.07746479 7.84507042 15 10 C9.947101 10.51851738 5.0595159 10.34760033 0 10 C0 6.7 0 3.4 0 0 Z " fill="#14182A" transform="translate(388,197)"/>
<path d="M0 0 C0.66 0 1.32 0 2 0 C2 1.65 2 3.3 2 5 C2.99 5 3.98 5 5 5 C3.90303373 8.2908988 3.15198144 8.96796717 0.5625 11.125 C-2.84205791 14.01053274 -6.18795033 16.94581929 -9.5 19.9375 C-10.3559375 20.70964844 -11.211875 21.48179687 -12.09375 22.27734375 C-12.7228125 22.84582031 -13.351875 23.41429687 -14 24 C-15.65 22.35 -17.3 20.7 -19 19 C-18.27296875 18.48953125 -18.27296875 18.48953125 -17.53125 17.96875 C-12.84026957 14.57681031 -8.76022462 10.91942374 -4.76171875 6.734375 C-3 5 -3 5 0 3 C0 2.01 0 1.02 0 0 Z " fill="#325B80" transform="translate(235,218)"/>
<path d="M0 0 C28.71 0 57.42 0 87 0 C87.495 1.485 87.495 1.485 88 3 C90.97 3.33 93.94 3.66 97 4 C95.68 5.32 94.36 6.64 93 8 C92.505 6.515 92.505 6.515 92 5 C90.02 4.67 88.04 4.34 86 4 C86 3.01 86 2.02 86 1 C44.42 1.495 44.42 1.495 2 2 C1.67 4.97 1.34 7.94 1 11 C0.67 11 0.34 11 0 11 C0 7.37 0 3.74 0 0 Z " fill="#0B1534" transform="translate(150,193)"/>
<path d="M0 0 C5.45454545 0.45454545 5.45454545 0.45454545 8 3 C8.5 5.875 8.5 5.875 8 9 C5 11.375 5 11.375 2 13 C-0.5625 11.4375 -0.5625 11.4375 -3 9 C-2.93113135 5.00561826 -2.8685771 2.8685771 0 0 Z " fill="#70B5D8" transform="translate(103,205)"/>
<path d="M0 0 C0.99 0.33 1.98 0.66 3 1 C3.495 3.475 3.495 3.475 4 6 C6.97 6.33 9.94 6.66 13 7 C13 7.33 13 7.66 13 8 C-12.74 8 -38.48 8 -65 8 C-65 7.67 -65 7.34 -65 7 C-43.55 6.67 -22.1 6.34 0 6 C0 4.02 0 2.04 0 0 Z " fill="#3388B4" transform="translate(200,263)"/>
<path d="M0 0 C4.71491925 2.42889779 8.71682013 5.83689008 12 10 C12 10.99 12 11.98 12 13 C8.37 13 4.74 13 1 13 C0.34 11.35 -0.32 9.7 -1 8 C-3.54775306 7.10613836 -3.54775306 7.10613836 -6 7 C-6 6.67 -6 6.34 -6 6 C-4.35 5.67 -2.7 5.34 -1 5 C-0.67 3.35 -0.34 1.7 0 0 Z " fill="#545E77" transform="translate(91,254)"/>
<path d="M0 0 C36.63 0.495 36.63 0.495 74 1 C74 1.33 74 1.66 74 2 C73.09584099 2.00879936 73.09584099 2.00879936 72.17341614 2.01777649 C65.89516909 2.0817501 59.61743275 2.16618022 53.33959961 2.26245117 C50.99722022 2.29568906 48.65476096 2.3237245 46.31225586 2.34643555 C42.94350167 2.38000168 39.57547869 2.43232019 36.20703125 2.48828125 C34.63801811 2.49786613 34.63801811 2.49786613 33.03730774 2.50764465 C26.03201528 2.61412455 26.03201528 2.61412455 20 6 C20 5.34 20 4.68 20 4 C13.73 3.67 7.46 3.34 1 3 C0.67 2.01 0.34 1.02 0 0 Z " fill="#9FA9B6" transform="translate(109,249)"/>
<path d="M0 0 C2.9375 0.8125 2.9375 0.8125 4.9375 2.8125 C5.29773622 5.62234248 5.32082602 7.19491919 3.8125 9.625 C1.10304166 11.34099028 -0.92545684 11.146228 -4.0625 10.8125 C-6.0625 8.8125 -6.0625 8.8125 -6.375 5.875 C-6.0625 2.8125 -6.0625 2.8125 -4.9375 0.875 C-3.0625 -0.1875 -3.0625 -0.1875 0 0 Z " fill="#71BDE1" transform="translate(102.0625,288.1875)"/>
<path d="M0 0 C3.59357719 0.56990652 5.17249271 1.86382477 7.625 4.5 C10.03610916 7.11806646 10.03610916 7.11806646 13 9 C13 10.32 13 11.64 13 13 C16.70150331 11.14924835 18.91207754 8.9625485 21.5625 5.875 C25.04600726 2.22433788 27.48439811 1.38990545 32.5 1 C34.332974 0.96370349 36.16731817 0.95112848 38 1 C38 1.66 38 2.32 38 3 C37.33355469 2.94457031 36.66710937 2.88914063 35.98046875 2.83203125 C30.8748612 2.7963277 27.96649125 3.20912279 23.92578125 6.515625 C21.96457766 8.47940446 20.14005723 10.54158775 18.3125 12.62890625 C17.549375 13.41136719 16.78625 14.19382812 16 15 C15.01 15 14.02 15 13 15 C13 21.93 13 28.86 13 36 C12.67 36 12.34 36 12 36 C12.01160156 35.28457031 12.02320312 34.56914062 12.03515625 33.83203125 C12.06484477 30.55357059 12.03289371 27.27840624 12 24 C12.01933594 22.87464844 12.03867188 21.74929688 12.05859375 20.58984375 C11.95138639 14.47902439 11.55289567 10.80289567 7.125 6.375 C5.76802086 5.22832759 4.39413225 4.10120174 3 3 C1.98657902 2.01360357 0.98131323 1.01834392 0 0 Z " fill="#C9D0D9" transform="translate(91,253)"/>
<path d="M0 0 C2.375 0.6875 2.375 0.6875 3.375 1.6875 C3.5625 4.125 3.5625 4.125 3.375 6.6875 C1.375 8.6875 1.375 8.6875 -1.125 8.9375 C-3.625 8.6875 -3.625 8.6875 -5.625 6.6875 C-5.9375 4.1875 -5.9375 4.1875 -5.625 1.6875 C-2.625 -0.3125 -2.625 -0.3125 0 0 Z " fill="#429DCF" transform="translate(85.625,250.3125)"/>
<path d="M0 0 C3.16115776 1.36983503 3.9927092 1.9890638 6 5 C7.1446875 5.6496875 7.1446875 5.6496875 8.3125 6.3125 C11.70580837 8.443182 13.54690571 10.84602162 16 14 C15.236875 13.649375 14.47375 13.29875 13.6875 12.9375 C10.95240621 11.67639116 10.95240621 11.67639116 8 13 C5.03 9.37 2.06 5.74 -1 2 C-0.67 1.34 -0.34 0.68 0 0 Z " fill="#71788B" transform="translate(184,249)"/>
<path d="M0 0 C5.45454545 0.45454545 5.45454545 0.45454545 8 3 C8.125 5.625 8.125 5.625 8 8 C7.01 8.495 7.01 8.495 6 9 C6 7.35 6 5.7 6 4 C3.69 4 1.38 4 -1 4 C-1.33 4.66 -1.66 5.32 -2 6 C-2 2 -2 2 0 0 Z " fill="#7EB7D7" transform="translate(99,288)"/>
<path d="M0 0 C5.28 0 10.56 0 16 0 C15.67 0.66 15.34 1.32 15 2 C12.85546875 2.37890625 12.85546875 2.37890625 10.1875 2.5625 C7.00544462 2.79281125 4.0743965 3.13286253 1 4 C0.67 2.68 0.34 1.36 0 0 Z " fill="#68829D" transform="translate(62,256)"/>
<path d="M0 0 C1.15518918 0.90484792 2.29885406 1.8244206 3.4375 2.75 C4.07558594 3.26046875 4.71367188 3.7709375 5.37109375 4.296875 C7.18810554 6.19667629 7.60423197 7.43586908 8 10 C4.20866644 9.45838092 2.33890436 8.00716275 0 5 C-0.25 2.25 -0.25 2.25 0 0 Z " fill="#575E73" transform="translate(103,237)"/>
<path d="M0 0 C2.64 0 5.28 0 8 0 C8 0.66 8 1.32 8 2 C7.01 2 6.02 2 5 2 C5 4.97 5 7.94 5 11 C4.34 10.67 3.68 10.34 3 10 C3 7.36 3 4.72 3 2 C2.01 2 1.02 2 0 2 C0 1.34 0 0.68 0 0 Z " fill="#8C94A7" transform="translate(430,179)"/>
<path d="M0 0 C0.66 0 1.32 0 2 0 C2.33 0.99 2.66 1.98 3 3 C3.55171875 2.83628906 4.1034375 2.67257812 4.671875 2.50390625 C7.26614007 1.94239586 9.59835411 1.90260992 12.25 1.9375 C13.14203125 1.94652344 14.0340625 1.95554687 14.953125 1.96484375 C15.62859375 1.97644531 16.3040625 1.98804688 17 2 C17 2.33 17 2.66 17 3 C16.38511719 3.04898437 15.77023438 3.09796875 15.13671875 3.1484375 C14.32847656 3.22320312 13.52023438 3.29796875 12.6875 3.375 C11.48673828 3.47941406 11.48673828 3.47941406 10.26171875 3.5859375 C7.72775559 3.89564426 7.72775559 3.89564426 5 6 C2.3125 5.625 2.3125 5.625 0 5 C0 3.35 0 1.7 0 0 Z " fill="#314561" transform="translate(60,256)"/>
<path d="M0 0 C0.66 1.32 1.32 2.64 2 4 C0 7 0 7 -2.05859375 7.58203125 C-2.84363281 7.65808594 -3.62867187 7.73414063 -4.4375 7.8125 C-5.21996094 7.90144531 -6.00242187 7.99039062 -6.80859375 8.08203125 C-9 8 -9 8 -12 6 C-11.67 5.01 -11.34 4.02 -11 3 C-9.515 3.99 -9.515 3.99 -8 5 C-5.66800612 5.07905064 -3.33167378 5.08798769 -1 5 C-0.67 3.35 -0.34 1.7 0 0 Z " fill="#2A496E" transform="translate(90,253)"/>
<path d="M0 0 C1.98 0 3.96 0 6 0 C6.33 0.99 6.66 1.98 7 3 C9.97 3.33 12.94 3.66 16 4 C14.68 5.32 13.36 6.64 12 8 C11.67 7.01 11.34 6.02 11 5 C8.03 4.505 8.03 4.505 5 4 C5 3.01 5 2.02 5 1 C3.35 1 1.7 1 0 1 C0 0.67 0 0.34 0 0 Z " fill="#102742" transform="translate(231,193)"/>
<path d="M0 0 C0.99 0 1.98 0 3 0 C2.34 1.32 1.68 2.64 1 4 C-5.6 4 -12.2 4 -19 4 C-19 3.67 -19 3.34 -19 3 C-12.48755792 2.30491177 -6.4489191 1.68090291 0 3 C0 2.01 0 1.02 0 0 Z " fill="#49587B" transform="translate(235,180)"/>
<path d="M0 0 C0.99 0.33 1.98 0.66 3 1 C3.33 2.98 3.66 4.96 4 7 C0.7 7 -2.6 7 -6 7 C-6 6.67 -6 6.34 -6 6 C-4.02 6 -2.04 6 0 6 C0 4.02 0 2.04 0 0 Z " fill="#7589A0" transform="translate(200,263)"/>
<path d="M0 0 C1.32 0.99 2.64 1.98 4 3 C3.1875 4.9375 3.1875 4.9375 2 7 C1.01 7.33 0.02 7.66 -1 8 C-1.625 5.6875 -1.625 5.6875 -2 3 C-1.34 2.01 -0.68 1.02 0 0 Z " fill="#2897C3" transform="translate(232,216)"/>
<path d="M0 0 C0.66 0 1.32 0 2 0 C2.33 2.31 2.66 4.62 3 7 C3.99 7.33 4.98 7.66 6 8 C6 8.33 6 8.66 6 9 C4.33388095 9.042721 2.66617115 9.04063832 1 9 C0 8 0 8 -0.09765625 6.15234375 C-0.06510417 4.1015625 -0.03255208 2.05078125 0 0 Z " fill="#363D55" transform="translate(417,182)"/>
<path d="M0 0 C1.32 0.99 2.64 1.98 4 3 C0.57905758 5.28062828 -0.68187222 5.21925007 -4.6875 5.125 C-6.17830078 5.09792969 -6.17830078 5.09792969 -7.69921875 5.0703125 C-8.45847656 5.04710937 -9.21773437 5.02390625 -10 5 C-10 4.67 -10 4.34 -10 4 C-7.36 4 -4.72 4 -2 4 C-1.34 2.68 -0.68 1.36 0 0 Z " fill="#3C5D81" transform="translate(214,265)"/>
<path d="M0 0 C2.475 0.495 2.475 0.495 5 1 C5.08090971 2.62418745 5.13914995 4.24951745 5.1875 5.875 C5.22230469 6.77992188 5.25710937 7.68484375 5.29296875 8.6171875 C5.19628906 9.40351563 5.09960938 10.18984375 5 11 C4.01 11.66 3.02 12.32 2 13 C1.34 12.34 0.68 11.68 0 11 C0.99 10.34 1.98 9.68 3 9 C3.50010524 6.04230823 3.50010524 6.04230823 3 3 C1.62493901 1.12109566 1.62493901 1.12109566 0 0 Z " fill="#4B6280" transform="translate(107,205)"/>
<path d="M0 0 C0.33 0 0.66 0 1 0 C1.268125 1.134375 1.53625 2.26875 1.8125 3.4375 C2.204375 4.613125 2.59625 5.78875 3 7 C3.99 7.33 4.98 7.66 6 8 C6 8.66 6 9.32 6 10 C3.625 9.6875 3.625 9.6875 1 9 C-1 6 -1 6 -0.625 2.8125 C-0.41875 1.884375 -0.2125 0.95625 0 0 Z " fill="#2A3245" transform="translate(65,224)"/>
<path d="M0 0 C0.66 0.33 1.32 0.66 2 1 C2.29296875 7.0546875 2.29296875 7.0546875 2 9 C1.01 9.66 0.02 10.32 -1 11 C-1.33 10.01 -1.66 9.02 -2 8 C-1.34 8 -0.68 8 0 8 C0 5.36 0 2.72 0 0 Z " fill="#2F94BC" transform="translate(251,317)"/>
<path d="M0 0 C0.33 0.66 0.66 1.32 1 2 C0.06553465 4.03144641 -0.93224776 6.03533587 -2 8 C-3.65 8 -5.3 8 -7 8 C-6.02133662 6.85373678 -5.04205413 5.70800212 -4.0625 4.5625 C-3.51722656 3.92441406 -2.97195313 3.28632813 -2.41015625 2.62890625 C-1.63204305 1.73008851 -0.84063472 0.84063472 0 0 Z " fill="#25283A" transform="translate(268,200)"/>
<path d="M0 0 C1.32 1.32 2.64 2.64 4 4 C3.67 4.66 3.34 5.32 3 6 C2.236875 5.67 1.47375 5.34 0.6875 5 C-1.99069135 3.82563314 -1.99069135 3.82563314 -5 4 C-3.35 2.68 -1.7 1.36 0 0 Z " fill="#2F8DB5" transform="translate(239,225)"/>
<path d="M0 0 C0.33 0 0.66 0 1 0 C1.433125 1.6396875 1.433125 1.6396875 1.875 3.3125 C2.81893204 7.04013845 2.81893204 7.04013845 5 10 C3.125 9.6875 3.125 9.6875 1 9 C-1 6 -1 6 -0.625 2.8125 C-0.41875 1.884375 -0.2125 0.95625 0 0 Z " fill="#203754" transform="translate(99,208)"/>
<path d="M0 0 C2.475 0.99 2.475 0.99 5 2 C4.34 4.31 3.68 6.62 3 9 C2.896875 8.360625 2.79375 7.72125 2.6875 7.0625 C2.460625 6.381875 2.23375 5.70125 2 5 C1.01 4.67 0.02 4.34 -1 4 C-0.67 2.68 -0.34 1.36 0 0 Z " fill="#56607B" transform="translate(79,259)"/>
<path d="M0 0 C1.65 0 3.3 0 5 0 C4.67 1.32 4.34 2.64 4 4 C2.68 3.67 1.36 3.34 0 3 C0 2.01 0 1.02 0 0 Z " fill="#508EB8" transform="translate(62,256)"/>
<path d="M0 0 C0.99 0 1.98 0 3 0 C3 1.98 3 3.96 3 6 C2.67 5.01 2.34 4.02 2 3 C0.02 3.99 0.02 3.99 -2 5 C-1.125 1.125 -1.125 1.125 0 0 Z " fill="#35A8DD" transform="translate(84,251)"/>
<path d="M0 0 C0.78375 0.04125 1.5675 0.0825 2.375 0.125 C1.199375 0.99125 1.199375 0.99125 0 1.875 C-2.42547244 3.95397637 -3.48194417 5.21540333 -4.625 8.125 C-4.75 5.25 -4.75 5.25 -4.625 2.125 C-2.625 0.125 -2.625 0.125 0 0 Z " fill="#C8D2E6" transform="translate(86.625,260.875)"/>
<path d="M0 0 C0.99 0.495 0.99 0.495 2 1 C2 1.66 2 2.32 2 3 C2.66 3 3.32 3 4 3 C4 5.64 4 8.28 4 11 C3.67 11 3.34 11 3 11 C2.01 7.37 1.02 3.74 0 0 Z " fill="#40698A" transform="translate(243,231)"/>
<path d="M0 0 C0.99 0.33 1.98 0.66 3 1 C3 1.99 3 2.98 3 4 C1.02 4 -0.96 4 -3 4 C-3 3.34 -3 2.68 -3 2 C-2.01 1.34 -1.02 0.68 0 0 Z " fill="#36557B" transform="translate(225,232)"/>
</svg>
